<?xml version="1.0" encoding="UTF-8"?>
<svg version="1.1" xmlns="http://www.w3.org/2000/svg" width="500" height="500">
<path d="M0 0 C0.76463058 -0.0065712 1.52926117 -0.0131424 2.31706238 -0.01991272 C4.85899965 -0.03968629 7.40087726 -0.05132696 9.94287109 -0.0612793 C10.81470409 -0.06535482 11.68653709 -0.06943035 12.58478928 -0.07362938 C17.21326206 -0.09452289 21.84170505 -0.10880154 26.47021484 -0.11816406 C31.21288115 -0.12914129 35.95506686 -0.16342916 40.69756508 -0.20333576 C44.37318681 -0.22973337 48.04869906 -0.23787694 51.7244072 -0.24144554 C53.46960004 -0.24626444 55.2147896 -0.25774102 56.95988846 -0.27648354 C73.10549246 -0.43888852 87.26098932 1.19515715 100.59130859 11.17700195 C101.39181641 11.71196289 102.19232422 12.24692383 103.01708984 12.7980957 C112.53776781 19.47057085 118.50753241 30.24478074 121.13061523 41.48876953 C121.59749362 44.21309276 121.70511492 46.71612051 121.68896484 49.4777832 C121.68574219 50.45424805 121.68251953 51.43071289 121.67919922 52.43676758 C121.67082031 53.44416992 121.66244141 54.45157227 121.65380859 55.48950195 C121.64929688 56.51624023 121.64478516 57.54297852 121.64013672 58.60083008 C121.62839044 61.12628078 121.61196424 63.651611 121.59130859 66.17700195 C122.56068359 66.58950195 123.53005859 67.00200195 124.52880859 67.42700195 C139.9371416 74.0361206 154.20155955 81.06255098 167.82373047 90.90893555 C169.37003153 92.01825706 170.9398442 93.09465519 172.51318359 94.1652832 C179.66309777 99.10464699 185.84726546 104.91611606 192.11083984 110.9074707 C194.26515378 112.96479157 196.45193164 114.9134722 198.77099609 116.7824707 C201.52397974 119.11983771 203.66487616 121.47698362 205.90380859 124.30200195 C208.28858172 127.3083599 210.67618143 130.27392699 213.20458984 133.16137695 C214.03345703 134.1152832 214.86232422 135.06918945 215.71630859 136.05200195 C216.48201172 136.91567383 217.24771484 137.7793457 218.03662109 138.66918945 C219.59130859 141.17700195 219.59130859 141.17700195 219.47412109 143.77856445 C218.6343313 146.06011727 217.7883105 147.73545509 216.34130859 149.67700195 C215.74576172 150.4968457 215.74576172 150.4968457 215.13818359 151.33325195 C213.59130859 153.17700195 213.59130859 153.17700195 211.16162109 155.58325195 C208.76550118 158.00122099 206.77141066 160.46987955 204.71630859 163.17700195 C199.30706204 169.87760453 192.90097753 175.19064413 186.31738281 180.70043945 C184.03654899 182.65156858 181.88413984 184.72681307 179.71630859 186.80200195 C172.99331496 192.86263169 165.30346472 197.49395775 157.59130859 202.17700195 C156.74503906 202.69262695 155.89876953 203.20825195 155.02685547 203.73950195 C144.5898129 210.04344476 134.32502919 215.68078776 122.71679688 219.47192383 C120.37808176 220.24773468 118.06216714 221.07720232 115.74365234 221.91137695 C86.74010349 232.17700195 86.74010349 232.17700195 72.59130859 232.17700195 C72.25099609 233.84762695 72.25099609 233.84762695 71.90380859 235.55200195 C69.3540048 245.64423235 63.85069215 255.74099648 54.96630859 261.42700195 C42.0166449 268.28277985 30.68202825 268.68949829 16.34130859 268.42700195 C14.42075438 268.40689823 12.50017976 268.38865434 10.57958984 268.37231445 C5.91631734 268.32864412 1.25404317 268.25983271 -3.40869141 268.17700195 C-4.88831809 263.61779648 -3.20824319 260.56200852 -1.34619141 256.36450195 C-0.69693007 254.84922968 -0.04851039 253.33359654 0.59912109 251.81762695 C1.09653809 250.66617188 1.09653809 250.66617188 1.60400391 249.49145508 C3.14026356 245.89013423 4.58613675 242.2541001 6.02880859 238.61450195 C6.52744372 237.36317485 7.02613538 236.11187027 7.52490234 234.8605957 C7.87681641 233.97500977 8.22873047 233.08942383 8.59130859 232.17700195 C4.4070494 230.72227794 0.23910684 229.55947845 -4.07275391 228.5480957 C-19.62184889 224.80088842 -34.15207398 220.60111965 -48.40869141 213.17700195 C-49.84849365 212.44755371 -49.84849365 212.44755371 -51.31738281 211.70336914 C-64.62836125 204.93707821 -76.81192226 197.57959552 -88.40869141 188.17700195 C-90.15592819 186.79849238 -91.9054529 185.42287019 -93.65869141 184.05200195 C-94.30322266 183.53379883 -94.94775391 183.0155957 -95.61181641 182.48168945 C-97.46592085 181.1354484 -99.33375336 180.14102184 -101.40869141 179.17700195 C-101.77478516 179.9040332 -102.14087891 180.63106445 -102.51806641 181.38012695 C-109.78318535 194.87249071 -119.82166117 204.04859525 -133.40869141 211.17700195 C-134.48634766 211.74290039 -135.56400391 212.30879883 -136.67431641 212.8918457 C-146.28167319 217.46092585 -155.92682713 218.90308668 -166.40869141 220.17700195 C-166.38367554 221.01992798 -166.38367554 221.01992798 -166.3581543 221.87988281 C-166.1048525 236.85930178 -171.46367929 248.84263785 -179.40869141 261.17700195 C-179.95267578 262.04067383 -180.49666016 262.9043457 -181.05712891 263.79418945 C-191.68843626 278.95864309 -210.70424746 289.18406203 -228.49853516 292.8059082 C-231.4367965 293.18058582 -234.26021098 293.31010313 -237.22119141 293.30200195 C-238.17638672 293.30458008 -239.13158203 293.3071582 -240.11572266 293.30981445 C-242.40869141 293.17700195 -242.40869141 293.17700195 -243.40869141 292.17700195 C-243.56701179 289.23168067 -243.66024453 286.3080353 -243.71191406 283.36010742 C-243.73173214 282.42961201 -243.75155022 281.49911659 -243.77196884 280.54042435 C-243.83630031 277.4167637 -243.89252056 274.29302352 -243.94775391 271.16918945 C-243.96820393 270.08552975 -243.98865395 269.00187004 -244.00972366 267.88537216 C-244.47546902 243.10082573 -244.69636085 218.315737 -244.75878906 193.52709961 C-244.77233555 188.65647479 -244.80066534 183.78624847 -244.84082031 178.91577148 C-244.89043412 172.8810235 -244.91493144 166.84664571 -244.92201614 160.81170273 C-244.92863383 158.5610018 -244.94359927 156.3103061 -244.96790695 154.05972672 C-245.22589009 128.85705483 -240.33476725 107.55488136 -222.20556641 88.91137695 C-212.05099639 79.28091378 -200.74999457 73.2153621 -187.40869141 69.17700195 C-186.66619141 68.93079102 -185.92369141 68.68458008 -185.15869141 68.4309082 C-168.24953101 63.64218114 -148.47293403 67.91209053 -133.40869141 76.17700195 C-130.2948404 78.03601748 -127.33975982 80.04293246 -124.40869141 82.17700195 C-123.28140625 82.97944336 -123.28140625 82.97944336 -122.13134766 83.7980957 C-113.70331574 90.03628001 -106.67100972 97.48432618 -102.40869141 107.17700195 C-102.40869141 107.83700195 -102.40869141 108.49700195 -102.40869141 109.17700195 C-97.72243866 106.50996045 -93.74980048 103.26143304 -89.61572266 99.8215332 C-87.40869141 98.17700195 -87.40869141 98.17700195 -85.40869141 98.17700195 C-85.07869141 97.18700195 -84.74869141 96.19700195 -84.40869141 95.17700195 C-60.52237137 76.24121457 -30.21861396 62.81135646 -0.40869141 57.17700195 C0.76951172 56.95141602 1.94771484 56.72583008 3.16162109 56.4934082 C5.63543284 56.03470909 8.10992317 55.59238806 10.59130859 55.17700195 C10.59130859 51.70141517 9.73162138 49.99352449 8.24755859 46.86450195 C7.49587402 45.26396973 7.49587402 45.26396973 6.72900391 43.63110352 C6.18856445 42.49125 5.648125 41.35139648 5.09130859 40.17700195 C1.25660913 31.96369016 -2.57244555 23.75245496 -6.15869141 15.42700195 C-6.49320313 14.67290039 -6.82771484 13.91879883 -7.17236328 13.1418457 C-8.9405821 8.98177821 -9.78572114 5.78836564 -9.40869141 1.17700195 C-6.40186462 -0.32641144 -3.29898657 0.012234 0 0 Z " fill="#D5BEFE" transform="translate(269.40869140625,102.822998046875)"/>
<path d="M0 0 C6.79979997 2.21553275 10.65046624 7.55637024 13.9296875 13.75830078 C17.46277655 21.11955435 20.14588872 28.05302925 20.09765625 36.30078125 C20.09443359 37.27724609 20.09121094 38.25371094 20.08789062 39.25976562 C20.07951172 40.26716797 20.07113281 41.27457031 20.0625 42.3125 C20.05798828 43.33923828 20.05347656 44.36597656 20.04882812 45.42382812 C20.03708184 47.94927882 20.02065565 50.47460905 20 53 C20.969375 53.4125 21.93875 53.825 22.9375 54.25 C38.345833 60.85911864 52.61025096 67.88554903 66.23242188 77.73193359 C67.77872294 78.8412551 69.34853561 79.91765324 70.921875 80.98828125 C78.07178918 85.92764504 84.25595687 91.7391141 90.51953125 97.73046875 C92.67384519 99.78778962 94.86062305 101.73647025 97.1796875 103.60546875 C99.93267115 105.94283575 102.07356756 108.29998167 104.3125 111.125 C106.69727313 114.13135795 109.08487284 117.09692503 111.61328125 119.984375 C112.44214844 120.93828125 113.27101563 121.8921875 114.125 122.875 C114.89070313 123.73867187 115.65640625 124.60234375 116.4453125 125.4921875 C118 128 118 128 117.8828125 130.6015625 C117.0430227 132.88311532 116.19700191 134.55845314 114.75 136.5 C114.15445313 137.31984375 114.15445313 137.31984375 113.546875 138.15625 C112 140 112 140 109.5703125 142.40625 C107.17419258 144.82421903 105.18010207 147.2928776 103.125 150 C97.71575344 156.70060258 91.30966894 162.01364218 84.72607422 167.5234375 C82.4452404 169.47456663 80.29283124 171.54981112 78.125 173.625 C71.40200636 179.68562973 63.71215613 184.3169558 56 189 C55.15373047 189.515625 54.30746094 190.03125 53.43554688 190.5625 C42.99850431 196.86644281 32.7337206 202.5037858 21.12548828 206.29492188 C18.78677317 207.07073272 16.47085855 207.90020036 14.15234375 208.734375 C-14.85120511 219 -14.85120511 219 -29 219 C-29.3403125 220.670625 -29.3403125 220.670625 -29.6875 222.375 C-32.23730379 232.4672304 -37.74061645 242.56399453 -46.625 248.25 C-59.57466369 255.1057779 -70.90928034 255.51249634 -85.25 255.25 C-87.17055421 255.22989628 -89.09112883 255.21165238 -91.01171875 255.1953125 C-95.67499125 255.15164217 -100.33726543 255.08283076 -105 255 C-106.47962668 250.44079453 -104.79955178 247.38500656 -102.9375 243.1875 C-102.28823867 241.67222773 -101.63981898 240.15659459 -100.9921875 238.640625 C-100.66057617 237.87298828 -100.32896484 237.10535156 -99.98730469 236.31445312 C-98.45104503 232.71313228 -97.00517184 229.07709815 -95.5625 225.4375 C-95.06386487 224.18617289 -94.56517321 222.93486831 -94.06640625 221.68359375 C-93.53853516 220.35521484 -93.53853516 220.35521484 -93 219 C-97.18425919 217.54527598 -101.35220176 216.38247649 -105.6640625 215.37109375 C-121.2171153 211.62293267 -135.73390428 207.40946017 -150 200 C-151.03962891 199.47647949 -152.07925781 198.95295898 -153.15039062 198.41357422 C-156.50986098 196.71775336 -159.8511406 194.99080543 -163.1875 193.25 C-164.24702881 192.70706299 -165.30655762 192.16412598 -166.39819336 191.60473633 C-167.37409424 191.08032959 -168.34999512 190.55592285 -169.35546875 190.015625 C-170.22840576 189.55446289 -171.10134277 189.09330078 -172.00073242 188.61816406 C-174.54166671 186.56158664 -174.53729928 185.1500484 -175 182 C-177.27810464 180.81817439 -177.27810464 180.81817439 -180 180 C-181.76127169 178.9041563 -183.49089968 177.75602367 -185.1875 176.5625 C-186.04730469 175.96566406 -186.90710938 175.36882812 -187.79296875 174.75390625 C-190 173 -190 173 -192 170 C-194.89062762 168.0982713 -197.8843659 166.50012012 -201 165 C-201 164.01 -201 163.02 -201 162 C-201.99 162.33 -202.98 162.66 -204 163 C-203.52309796 161.37433394 -203.04340334 159.74948689 -202.5625 158.125 C-202.29566406 157.22007812 -202.02882812 156.31515625 -201.75390625 155.3828125 C-201 153 -201 153 -200 151 C-199.34 151 -198.68 151 -198 151 C-197.63213101 148.52220474 -197.28058119 146.04375168 -196.9375 143.5625 C-196.83373047 142.87478516 -196.72996094 142.18707031 -196.62304688 141.47851562 C-195.86302856 135.84389712 -196.33841583 131.95425757 -197 126 C-197.66 120.06 -198.32 114.12 -199 108 C-137.95 108 -76.9 108 -14 108 C-14 87.54 -14 67.08 -14 46 C-1.625 48.25 -1.625 48.25 2.44921875 49.5078125 C3.31611328 49.77207031 4.18300781 50.03632813 5.07617188 50.30859375 C5.93791016 50.57800781 6.79964844 50.84742188 7.6875 51.125 C8.59177734 51.40214844 9.49605469 51.67929688 10.42773438 51.96484375 C12.62026814 52.6376848 14.81089995 53.31608719 17 54 C17.68515816 36.23243258 17.68515816 36.23243258 14 19 C13.67 18.01 13.34 17.02 13 16 C12.01 15.67 11.02 15.34 10 15 C8.57001742 13.02761023 7.28632686 11.06321734 6 9 C4.92095317 7.37215048 3.83746317 5.74723918 2.75 4.125 C1.83333333 2.75 0.91666667 1.375 0 0 Z " fill="#D6BFFE" transform="translate(371,116)"/>
<path d="M0 0 C48.51 0 97.02 0 147 0 C147 20.36791733 140.34002745 38.09955768 126 53 C125.34 53 124.68 53 124 53 C124 53.66 124 54.32 124 55 C121.84609994 56.71475539 119.69429308 58.30644878 117.4375 59.875 C116.82841797 60.30941406 116.21933594 60.74382812 115.59179688 61.19140625 C104.51203547 69 104.51203547 69 99 69 C99 69.66 99 70.32 99 71 C90.51311539 73.29967196 82.79393628 74.42781312 74 74 C73.97421875 75.00417969 73.9484375 76.00835937 73.921875 77.04296875 C73.43472004 90.25136366 70.41894662 101.34592888 64 113 C63.34 113 62.68 113 62 113 C61.77441406 113.70382812 61.54882812 114.40765625 61.31640625 115.1328125 C59.72504172 118.59887055 57.52132026 121.1283709 54.9375 123.875 C54.44507813 124.4023877 53.95265625 124.92977539 53.4453125 125.47314453 C42.75088462 136.71680175 26.79703996 147.66057668 10.74960327 148.08621216 C9.5913504 148.07597015 8.43309753 148.06572815 7.23974609 148.05517578 C5.48626358 148.04322678 5.48626358 148.04322678 3.69735718 148.03103638 C2.80722931 148.02079437 1.91710144 148.01055237 1 148 C0.8223969 137.39599548 0.65679687 126.79183135 0.5 116.1875 C0.48812275 115.38466206 0.4762455 114.58182411 0.46400833 113.75465775 C-0.09204097 75.83266488 -0.07196851 37.92740621 0 0 Z " fill="#4F49F0" transform="translate(27,246)"/>
<path d="M0 0 C6.79979997 2.21553275 10.65046624 7.55637024 13.9296875 13.75830078 C17.46277655 21.11955435 20.14588872 28.05302925 20.09765625 36.30078125 C20.09443359 37.27724609 20.09121094 38.25371094 20.08789062 39.25976562 C20.07951172 40.26716797 20.07113281 41.27457031 20.0625 42.3125 C20.05798828 43.33923828 20.05347656 44.36597656 20.04882812 45.42382812 C20.03708184 47.94927882 20.02065565 50.47460905 20 53 C20.969375 53.4125 21.93875 53.825 22.9375 54.25 C38.345833 60.85911864 52.61025096 67.88554903 66.23242188 77.73193359 C67.77872294 78.8412551 69.34853561 79.91765324 70.921875 80.98828125 C78.07178918 85.92764504 84.25595687 91.7391141 90.51953125 97.73046875 C92.67384519 99.78778962 94.86062305 101.73647025 97.1796875 103.60546875 C99.93267115 105.94283575 102.07356756 108.29998167 104.3125 111.125 C106.69727313 114.13135795 109.08487284 117.09692503 111.61328125 119.984375 C112.44214844 120.93828125 113.27101563 121.8921875 114.125 122.875 C114.89070313 123.73867187 115.65640625 124.60234375 116.4453125 125.4921875 C118 128 118 128 117.8828125 130.6015625 C115.21662935 137.84508664 109.20388292 143.63430461 103 148 C103.61277612 145.03824877 104.25372522 143.61941217 106 141 C106.66 141 107.32 141 108 141 C108.2475 140.29875 108.495 139.5975 108.75 138.875 C110 136 110 136 114 130 C11.7 130 -90.6 130 -196 130 C-199 111 -199 111 -199 108 C-137.95 108 -76.9 108 -14 108 C-14 87.54 -14 67.08 -14 46 C-1.625 48.25 -1.625 48.25 2.44921875 49.5078125 C3.31611328 49.77207031 4.18300781 50.03632813 5.07617188 50.30859375 C5.93791016 50.57800781 6.79964844 50.84742188 7.6875 51.125 C8.59177734 51.40214844 9.49605469 51.67929688 10.42773438 51.96484375 C12.62026814 52.6376848 14.81089995 53.31608719 17 54 C17.68515816 36.23243258 17.68515816 36.23243258 14 19 C13.67 18.01 13.34 17.02 13 16 C12.01 15.67 11.02 15.34 10 15 C8.57001742 13.02761023 7.28632686 11.06321734 6 9 C4.92095317 7.37215048 3.83746317 5.74723918 2.75 4.125 C1.83333333 2.75 0.91666667 1.375 0 0 Z " fill="#E7D3FC" transform="translate(371,116)"/>
<path d="M0 0 C1.04923141 -0.00300613 1.04923141 -0.00300613 2.11965942 -0.006073 C16.20415124 -0.01589524 30.43975134 0.66135193 44.3125 3.25 C59.16361294 18.10111294 45.3125 45.24735466 45.3125 66.25 C-16.0675 66.25 -77.4475 66.25 -140.6875 66.25 C-141.6875 58.25 -141.6875 58.25 -140.54296875 56.15625 C-139.99253906 55.6921875 -139.44210938 55.228125 -138.875 54.75 C-138.33230469 54.2653125 -137.78960937 53.780625 -137.23046875 53.28125 C-135.6875 52.25 -135.6875 52.25 -133.6875 52.25 C-133.6875 51.59 -133.6875 50.93 -133.6875 50.25 C-132.140625 48.83984375 -132.140625 48.83984375 -129.9375 47.1875 C-129.12023437 46.57261719 -128.30296875 45.95773438 -127.4609375 45.32421875 C-126.08808594 44.29748047 -126.08808594 44.29748047 -124.6875 43.25 C-123.68976563 42.47269531 -122.69203125 41.69539063 -121.6640625 40.89453125 C-116.47341933 36.88714553 -111.8294409 33.63853257 -105.6875 31.25 C-101.12412523 28.70095599 -96.68096354 25.9631244 -92.375 23 C-89.82261106 21.33797929 -87.53655535 20.29233732 -84.6875 19.25 C-83.635625 18.775625 -82.58375 18.30125 -81.5 17.8125 C-76.21843642 15.53736492 -70.47412181 13.25 -64.6875 13.25 C-64.6875 12.59 -64.6875 11.93 -64.6875 11.25 C-55.4521361 8.18192801 -46.25152041 6.0122946 -36.6875 4.25 C-35.25504938 3.97870253 -33.82276042 3.70655025 -32.390625 3.43359375 C-28.49180102 2.69333304 -24.59171504 1.96141569 -20.6875 1.25 C-19.76098633 1.07581543 -18.83447266 0.90163086 -17.87988281 0.72216797 C-11.95710398 -0.15383802 -5.97663214 0.00826307 0 0 Z " fill="#8C70F9" transform="translate(310.6875,156.75)"/>
<path d="M0 0 C48.51 0 97.02 0 147 0 C147 20.36791733 140.34002745 38.09955768 126 53 C125.34 53 124.68 53 124 53 C124 53.66 124 54.32 124 55 C121.84609994 56.71475539 119.69429308 58.30644878 117.4375 59.875 C116.82841797 60.30941406 116.21933594 60.74382812 115.59179688 61.19140625 C104.51203547 69 104.51203547 69 99 69 C99 69.66 99 70.32 99 71 C97.08813411 71.51805398 95.17006735 72.01322236 93.25 72.5 C92.18265625 72.7784375 91.1153125 73.056875 90.015625 73.34375 C84.74255465 74.20549691 79.34302149 74 74 74 C74 49.91 74 25.82 74 1 C49.91 1 25.82 1 1 1 C1 25.42 1 49.84 1 75 C0.67 75 0.34 75 0 75 C0 50.25 0 25.5 0 0 Z " fill="#8C70F9" transform="translate(27,246)"/>
<path d="M0 0 C24.09 0 48.18 0 73 0 C72.01704379 14.74434315 69.95078764 25.38033227 63 38 C62.34 38 61.68 38 61 38 C60.77441406 38.70382812 60.54882812 39.40765625 60.31640625 40.1328125 C58.72504172 43.59887055 56.52132026 46.1283709 53.9375 48.875 C53.44507813 49.4023877 52.95265625 49.92977539 52.4453125 50.47314453 C41.77753446 61.68878326 28.23214896 69.77067011 13 73 C8.71 73 4.42 73 0 73 C0 48.91 0 24.82 0 0 Z " fill="#8C70F9" transform="translate(28,321)"/>
<path d="M0 0 C1.04027344 -0.00257813 2.08054687 -0.00515625 3.15234375 -0.0078125 C5.63915971 0.10567977 7.69342407 0.40571429 10.0625 1.125 C10.0625 1.785 10.0625 2.445 10.0625 3.125 C10.92875 3.269375 11.795 3.41375 12.6875 3.5625 C17.54476496 5.81123378 19.54194368 9.51903226 22.0625 14.125 C24.57141886 21.65175657 22.69104229 27.44191362 19.5546875 34.4765625 C17.6067872 37.93383057 15.65501605 39.47843014 12.0625 41.125 C11.31613281 41.47304687 10.56976563 41.82109375 9.80078125 42.1796875 C3.84865893 44.23448579 -3.69965178 44.60756756 -9.48828125 41.95703125 C-11.51252492 40.47411074 -13.2198948 38.95103988 -14.9375 37.125 C-15.72125 36.3 -16.505 35.475 -17.3125 34.625 C-21.09470759 28.80621909 -21.75889435 22.91729945 -20.9375 16.125 C-19.04703381 9.46050843 -14.48518113 5.05508211 -8.9375 1.125 C-5.73049911 0.0559997 -3.36757931 -0.00832529 0 0 Z " fill="#E9DFFD" transform="translate(403.9375,190.875)"/>
<path d="M0 0 C0.33 0.66 0.66 1.32 1 2 C0.07421875 3.8828125 0.07421875 3.8828125 -1.3125 6.125 C-3.40125864 9.72134753 -4.68106525 12.85650007 -5.49799919 16.91600704 C-5.99699367 18.98751962 -6.68059954 20.84416913 -7.48123169 22.81654358 C-13.59932512 38.92290963 -11.26413471 58.61198834 -11.20278788 75.60920262 C-11.19014623 79.71174653 -11.18909957 83.81429448 -11.18673706 87.91685486 C-11.18056126 95.65824675 -11.1642042 103.39958104 -11.14403808 111.14094776 C-11.12155645 119.96583342 -11.11065505 128.79072207 -11.10064721 137.61562932 C-11.07983375 155.74378533 -11.04473503 173.87188801 -11 192 C-8.93341806 191.86258318 -6.86724822 191.71896042 -4.80126953 191.57275391 C-3.65063019 191.49344635 -2.49999084 191.41413879 -1.31448364 191.33242798 C3.0688509 190.89279901 6.98891617 189.84503116 11.125 188.375 C12.27572998 187.97414185 12.27572998 187.97414185 13.44970703 187.56518555 C27.76871725 182.35593989 43.03156164 170.93687671 50 157 C50.66 157 51.32 157 52 157 C52.268125 155.948125 52.53625 154.89625 52.8125 153.8125 C54 150 54 150 55.4375 147.75 C60.4766439 138.88110673 60.9378066 127.95962516 62 118 C78.70842825 115.88838269 78.70842825 115.88838269 87 115 C87 114.34 87 113.68 87 113 C88.16917969 112.61070312 89.33835937 112.22140625 90.54296875 111.8203125 C95.01707799 110.14264475 98.53243183 107.75465676 102.3125 104.875 C108.6584537 100.11384877 108.6584537 100.11384877 112 99 C112 98.34 112 97.68 112 97 C113.1595361 95.8404639 114.32282619 94.6844592 115.50390625 93.546875 C119.37955727 89.53967447 122.54442734 84.99088778 125.125 80.0625 C127 77 127 77 129.25 76.0625 C129.8275 76.041875 130.405 76.02125 131 76 C131 76.99 131 77.98 131 79 C131.58265625 79.11472656 132.1653125 79.22945313 132.765625 79.34765625 C135.16523135 80.04824062 136.72860933 80.98192595 138.75 82.4375 C139.36359375 82.86933594 139.9771875 83.30117188 140.609375 83.74609375 C141.06828125 84.15988281 141.5271875 84.57367188 142 85 C142 85.66 142 86.32 142 87 C142.71542969 87.25910156 143.43085938 87.51820313 144.16796875 87.78515625 C147.1563781 89.06708081 149.63665478 90.59413996 152.3125 92.4375 C153.19550781 93.03433594 154.07851562 93.63117188 154.98828125 94.24609375 C155.65214844 94.82488281 156.31601563 95.40367187 157 96 C157 96.99 157 97.98 157 99 C152.83757924 97.59002684 150.02337593 95.58863248 146.6875 92.75 C138.36526167 85.60089456 138.36526167 85.60089456 129 80 C128.63390625 80.72703125 128.2678125 81.4540625 127.890625 82.203125 C120.62550605 95.69548876 110.58703024 104.87159329 97 112 C95.92234375 112.56589844 94.8446875 113.13179688 93.734375 113.71484375 C84.12701821 118.2839239 74.48186428 119.72608473 64 121 C64.02501587 121.84292603 64.02501587 121.84292603 64.05053711 122.70288086 C64.30383891 137.68229983 58.94501211 149.6656359 51 162 C50.45601563 162.86367188 49.91203125 163.72734375 49.3515625 164.6171875 C38.72025515 179.78164113 19.70444395 190.00706008 1.91015625 193.62890625 C-1.02810509 194.00358387 -3.85151957 194.13310118 -6.8125 194.125 C-7.76769531 194.12757813 -8.72289062 194.13015625 -9.70703125 194.1328125 C-12 194 -12 194 -13 193 C-13.15832038 190.05467871 -13.25155313 187.13103335 -13.30322266 184.18310547 C-13.32304073 183.25261005 -13.34285881 182.32211464 -13.36327744 181.36342239 C-13.4276089 178.23976175 -13.48382915 175.11602157 -13.5390625 171.9921875 C-13.55951252 170.90852779 -13.57996254 169.82486809 -13.60103226 168.70837021 C-14.06677761 143.92382377 -14.28766945 119.13873505 -14.35009766 94.35009766 C-14.36364415 89.47947284 -14.39197393 84.60924652 -14.43212891 79.73876953 C-14.48174272 73.70402155 -14.50624004 67.66964376 -14.51332474 61.63470078 C-14.51994243 59.38399985 -14.53490786 57.13330415 -14.55921555 54.88272476 C-14.76384453 34.89228222 -12.30358975 17.8497436 -1 1 C-0.67 0.67 -0.34 0.34 0 0 Z " fill="#E2C7FA" transform="translate(39,202)"/>
<path d="M0 0 C0.76463058 -0.0065712 1.52926117 -0.0131424 2.31706238 -0.01991272 C4.85899965 -0.03968629 7.40087726 -0.05132696 9.94287109 -0.0612793 C10.81470409 -0.06535482 11.68653709 -0.06943035 12.58478928 -0.07362938 C17.21326206 -0.09452289 21.84170505 -0.10880154 26.47021484 -0.11816406 C31.21288115 -0.12914129 35.95506686 -0.16342916 40.69756508 -0.20333576 C44.37318681 -0.22973337 48.04869906 -0.23787694 51.7244072 -0.24144554 C53.46960004 -0.24626444 55.2147896 -0.25774102 56.95988846 -0.27648354 C69.78083488 -0.40544654 83.53300163 -0.16617029 94.59130859 7.17700195 C90.87809471 8.41473992 90.17442316 7.75045924 86.65283203 6.26391602 C77.76975142 3.17297773 68.89254899 3.6788451 59.60693359 3.78637695 C57.69594926 3.79385198 55.78495719 3.79953893 53.8739624 3.80352783 C48.88275396 3.81868496 43.89202287 3.85787941 38.90100098 3.90234375 C33.7926275 3.94351237 28.68417571 3.96158464 23.57568359 3.98168945 C13.58068402 4.02438477 3.58603625 4.09251356 -6.40869141 4.17700195 C-5.45420374 6.59013913 -4.49723613 9.00224246 -3.53881836 11.41381836 C-3.27009163 12.093965 -3.0013649 12.77411163 -2.72449493 13.47486877 C-0.9190487 18.01039491 1.06441861 22.27456204 3.40380859 26.55200195 C6.19735491 31.96680539 7.48653655 36.10022359 7.59130859 42.17700195 C8.58130859 42.50700195 9.57130859 42.83700195 10.59130859 43.17700195 C11.54052734 44.84887695 11.54052734 44.84887695 12.27880859 46.92700195 C12.65585937 47.94020508 12.65585937 47.94020508 13.04052734 48.97387695 C13.65804564 51.44395015 13.68442709 53.6406316 13.59130859 56.17700195 C5.97681982 59.06727997 -1.50739507 60.906385 -9.53149414 62.13720703 C-13.42349526 62.74900835 -16.7840804 63.65972293 -20.40869141 65.17700195 C-21.39869141 65.17700195 -22.38869141 65.17700195 -23.40869141 65.17700195 C-23.40869141 65.83700195 -23.40869141 66.49700195 -23.40869141 67.17700195 C-24.26591797 67.43094727 -25.12314453 67.68489258 -26.00634766 67.9465332 C-31.96148734 69.73911753 -37.77284366 71.5185832 -43.40869141 74.17700195 C-44.17568359 74.53536133 -44.94267578 74.8937207 -45.73291016 75.26293945 C-51.65171964 78.10904386 -57.00702164 81.45728924 -62.40869141 85.17700195 C-65.15232801 86.94076834 -67.53199651 88.22293915 -70.59619141 89.36450195 C-76.6195674 91.85013091 -81.42019283 96.61192515 -86.31103516 100.80981445 C-90.24583426 104.17700195 -90.24583426 104.17700195 -92.40869141 104.17700195 C-92.40869141 104.83700195 -92.40869141 105.49700195 -92.40869141 106.17700195 C-95.91200854 109.57728034 -98.56702354 110.72661424 -103.40869141 111.17700195 C-103.73869141 109.52700195 -104.06869141 107.87700195 -104.40869141 106.17700195 C-105.89369141 105.68200195 -105.89369141 105.68200195 -107.40869141 105.17700195 C-108.95166016 103.1730957 -108.95166016 103.1730957 -110.59619141 100.61450195 C-113.62113828 96.10939945 -116.9305019 92.45092316 -120.90478516 88.77075195 C-122.40869141 87.17700195 -122.40869141 87.17700195 -122.40869141 85.17700195 C-113.17245068 87.6959767 -108.54591932 96.743888 -103.91259766 104.3840332 C-102.40869141 107.17700195 -102.40869141 107.17700195 -102.40869141 109.17700195 C-97.72243866 106.50996045 -93.74980048 103.26143304 -89.61572266 99.8215332 C-87.40869141 98.17700195 -87.40869141 98.17700195 -85.40869141 98.17700195 C-84.91369141 96.69200195 -84.91369141 96.69200195 -84.40869141 95.17700195 C-60.52237137 76.24121457 -30.21861396 62.81135646 -0.40869141 57.17700195 C0.76951172 56.95141602 1.94771484 56.72583008 3.16162109 56.4934082 C5.63543284 56.03470909 8.10992317 55.59238806 10.59130859 55.17700195 C10.59130859 51.70141517 9.73162138 49.99352449 8.24755859 46.86450195 C7.49587402 45.26396973 7.49587402 45.26396973 6.72900391 43.63110352 C6.18856445 42.49125 5.648125 41.35139648 5.09130859 40.17700195 C1.25660913 31.96369016 -2.57244555 23.75245496 -6.15869141 15.42700195 C-6.49320312 14.67290039 -6.82771484 13.91879883 -7.17236328 13.1418457 C-8.9405821 8.98177821 -9.78572114 5.78836564 -9.40869141 1.17700195 C-6.40186462 -0.32641144 -3.29898657 0.012234 0 0 Z " fill="#F0E3FE" transform="translate(269.40869140625,102.822998046875)"/>
<path d="M0 0 C3.5625 1.8125 3.5625 1.8125 6 4 C6.8971875 4.7734375 6.8971875 4.7734375 7.8125 5.5625 C10.34765005 8.63136586 10.27499325 12.10983484 10.21875 15.94140625 C9.67784896 21.0316714 6.85443627 24.82575836 3 28 C-1.11350954 30.28528308 -5.38814651 30.81236318 -10 30 C-14.64996615 28.16943336 -17.41672807 26.28805885 -19.5 21.6875 C-21.06398996 10.15307403 -21.06398996 10.15307403 -18 5 C-12.95666484 -0.97237058 -7.53222225 -1.13654931 0 0 Z " fill="#10121D" transform="translate(410,198)"/>
<path d="M0 0 C0.99 1.485 0.99 1.485 2 3 C0.68 2.67 -0.64 2.34 -2 2 C-2 1.34 -2 0.68 -2 0 C-2.515625 -0.0825 -3.03125 -0.165 -3.5625 -0.25 C-6 -1 -6 -1 -8.9375 -2.8125 C-14.19784252 -5.95266089 -20.15495996 -7.31757631 -26 -9 C-26.99 -9.33 -27.98 -9.66 -29 -10 C-45.78705013 -12.15833502 -64.8230144 -13.37745847 -79 -3 C-79.84175781 -2.42636719 -80.68351562 -1.85273438 -81.55078125 -1.26171875 C-84.06149302 0.45653771 -86.53505919 2.21685133 -89 4 C-89.73605469 4.52851563 -90.47210938 5.05703125 -91.23046875 5.6015625 C-95.15977937 8.47666783 -98.59696381 11.49973421 -102 15 C-102.99 15.66 -103.98 16.32 -105 17 C-103.58022398 12.23547557 -100.78641592 9.43412583 -97.1875 6.1875 C-96.6092749 5.66341553 -96.0310498 5.13933105 -95.43530273 4.59936523 C-85.78940123 -3.91771886 -75.32707333 -9.26864325 -63 -13 C-61.88625 -13.36931641 -61.88625 -13.36931641 -60.75 -13.74609375 C-40.67341015 -19.43184673 -15.94619756 -12.82705122 0 0 Z " fill="#F0E3FE" transform="translate(145,185)"/>
<path d="M0 0 C0 3.81685761 -1.49726269 5.20954439 -3.96484375 7.98046875 C-7.180059 11.17099905 -10.72682696 13.92228553 -14.26953125 16.73828125 C-16.70752718 18.7577371 -18.88078347 20.83707415 -21.0625 23.125 C-40.00893169 42.64167408 -73.96520007 60.01125903 -101 64 C-98.17219193 61.70627018 -95.56773681 60.28290546 -92.15625 59.02734375 C-90.78146484 58.51397461 -90.78146484 58.51397461 -89.37890625 57.99023438 C-88.42886719 57.64283203 -87.47882813 57.29542969 -86.5 56.9375 C-84.61389914 56.24012892 -82.72845607 55.54097561 -80.84375 54.83984375 C-79.59368164 54.38146118 -79.59368164 54.38146118 -78.31835938 53.91381836 C-75.99483492 53.03803937 -75.99483492 53.03803937 -73.83105469 51.91088867 C-70.70120619 50.35389337 -67.45220342 50.34522034 -64 50 C-64 49.34 -64 48.68 -64 48 C-62.865625 47.54625 -61.73125 47.0925 -60.5625 46.625 C-56.95278308 45.42904194 -56.95278308 45.42904194 -56 43 C-54.27951 41.98964514 -52.52305602 41.03997276 -50.75 40.125 C-46.79736291 38.03152855 -43.48176411 35.80475442 -40 33 C-36.700069 31.46382522 -33.45109111 30.1503637 -30 29 C-29.855625 28.38640625 -29.71125 27.7728125 -29.5625 27.140625 C-28.79409704 24.21642484 -27.43433886 23.49122849 -25 21.75 C-19.05828155 17.34101784 -13.54484766 12.54484766 -8.3125 7.3125 C-5.67355962 4.67355962 -2.89350495 2.35517845 0 0 Z " fill="#EFE2FE" transform="translate(473,264)"/>
<path d="M0 0 C0.33 0.66 0.66 1.32 1 2 C0.07421875 3.8828125 0.07421875 3.8828125 -1.3125 6.125 C-3.40280314 9.72400679 -4.68402245 12.86050011 -5.49780273 16.92407227 C-6 19 -6 19 -7.484375 22.6875 C-9.16175285 27.0676582 -9.71157577 31.28850401 -10.125 35.9375 C-10.8872093 43.8872093 -10.8872093 43.8872093 -12 45 C-12.12538693 48.07382396 -12.18612861 51.12625009 -12.20532227 54.20141602 C-12.21522186 55.16716553 -12.22512146 56.13291504 -12.23532104 57.12792969 C-12.26703901 60.33656316 -12.291734 63.54521148 -12.31640625 66.75390625 C-12.3369669 68.97208553 -12.35796312 71.19026082 -12.37937927 73.40843201 C-12.43469182 79.25935641 -12.48406046 85.1103167 -12.53222656 90.96130371 C-12.58237471 96.9267091 -12.63809559 102.89206208 -12.69335938 108.85742188 C-12.8010532 120.57156986 -12.90247307 132.28576327 -13 144 C-13.33 144 -13.66 144 -14 144 C-14.11756518 129.98603018 -14.20500809 115.97213843 -14.25906086 101.95777416 C-14.28501943 95.44848063 -14.32016389 88.93952123 -14.37719727 82.43041992 C-14.43201005 76.13447658 -14.4615235 69.83885214 -14.47438622 63.54268837 C-14.48353838 61.15521547 -14.50140699 58.7677576 -14.52865028 56.38042259 C-14.75398484 35.79270544 -12.6561439 18.37527992 -1 1 C-0.67 0.67 -0.34 0.34 0 0 Z " fill="#F2E2FE" transform="translate(39,202)"/>
<path d="M0 0 C4.7798328 0.50314029 8.76554154 2.00409975 13.14453125 3.8671875 C17.04291989 5.41374387 21.01456479 6.69759696 25 8 C25.73049561 8.24331055 26.46099121 8.48662109 27.21362305 8.73730469 C38.68653406 12.55094382 50.15246222 15.59369006 62 18 C61.40679328 21.97503942 60.57031724 25.2668342 58.88671875 28.9296875 C57.39205559 32.41942968 56.25502685 36.0421064 55.0625 39.64453125 C54 42 54 42 51 44 C52.94202345 35.97928527 55.66839495 28.54549287 59 21 C54.81574081 19.54527598 50.64779824 18.38247649 46.3359375 17.37109375 C8.15642878 8.15642878 8.15642878 8.15642878 0 0 Z " fill="#EEE1FE" transform="translate(219,314)"/>
<path d="M0 0 C6.79979997 2.21553275 10.65046624 7.55637024 13.9296875 13.75830078 C17.46277655 21.11955435 20.14588872 28.05302925 20.09765625 36.30078125 C20.09443359 37.27724609 20.09121094 38.25371094 20.08789062 39.25976562 C20.07951172 40.26716797 20.07113281 41.27457031 20.0625 42.3125 C20.05798828 43.33923828 20.05347656 44.36597656 20.04882812 45.42382812 C20.03708201 47.94924388 20.01914771 50.47462952 20 53 C25.28 55.31 30.56 57.62 36 60 C31.25309685 61.18672579 29.76120663 60.42839507 25.3125 58.625 C24.15363281 58.16351563 22.99476563 57.70203125 21.80078125 57.2265625 C19 56 19 56 18 55 C17.87843055 53.3610707 17.82030026 51.71735374 17.7890625 50.07421875 C17.76263672 49.05481201 17.73621094 48.03540527 17.70898438 46.98510742 C17.68126953 45.89689697 17.65355469 44.80868652 17.625 43.6875 C17.34562744 35.06568193 16.8417928 27.20104334 14 19 C13.67 18.01 13.34 17.02 13 16 C12.01 15.67 11.02 15.34 10 15 C8.57001742 13.02761023 7.28632686 11.06321734 6 9 C4.92095317 7.37215048 3.83746317 5.74723918 2.75 4.125 C1.375 2.0625 1.375 2.0625 0 0 Z " fill="#F2E6FE" transform="translate(371,116)"/>
<path d="M0 0 C0.78117187 0.01804687 1.56234375 0.03609375 2.3671875 0.0546875 C2.94726562 0.07789063 3.52734375 0.10109375 4.125 0.125 C1.14810924 2.10959384 -0.62469215 2.67323475 -4.05859375 3.4140625 C-5.06857422 3.63320313 -6.07855469 3.85234375 -7.11914062 4.078125 C-8.69985352 4.41070312 -8.69985352 4.41070312 -10.3125 4.75 C-11.36244141 4.97945313 -12.41238281 5.20890625 -13.49414062 5.4453125 C-17.74584779 6.35581193 -21.50849684 7.125 -25.875 7.125 C-26.101875 8.23875 -26.32875 9.3525 -26.5625 10.5 C-28.90860579 19.78598517 -34.12617036 30.15814052 -42.25 35.625 C-43.11625 36.12 -43.9825 36.615 -44.875 37.125 C-45.535 36.795 -46.195 36.465 -46.875 36.125 C-46.17375 35.63 -45.4725 35.135 -44.75 34.625 C-35.64588496 26.70837823 -31.35426822 16.39560824 -27.875 5.125 C-26.13863281 4.83496094 -26.13863281 4.83496094 -24.3671875 4.5390625 C-22.82808283 4.27628853 -21.28902266 4.01325388 -19.75 3.75 C-18.98945313 3.62367188 -18.22890625 3.49734375 -17.4453125 3.3671875 C-14.04695389 2.7812636 -10.90268805 2.13431809 -7.625 1.03125 C-4.88641537 0.12876188 -2.86224166 -0.0867346 0 0 Z " fill="#F0E4FE" transform="translate(367.875,327.875)"/>
<path d="M0 0 C1.60470241 4.01175602 0.2176313 7.01713733 -1 11 C4.51393764 10.9306447 10.02715121 10.84245147 15.54052734 10.73754883 C17.41218973 10.70450053 19.28394697 10.6764075 21.15576172 10.65356445 C34.45403451 10.72354297 34.45403451 10.72354297 47.24462891 7.53442383 C49 7 49 7 52 8 C50.41800369 8.64910154 48.83434276 9.29414694 47.25 9.9375 C46.36828125 10.29714844 45.4865625 10.65679687 44.578125 11.02734375 C40.89263524 12.41777852 37.72497809 13.12569438 33.78222656 13.11352539 C32.96167786 13.11344986 32.14112915 13.11337433 31.29571533 13.11329651 C30.41953552 13.10813522 29.54335571 13.10297394 28.640625 13.09765625 C27.28405792 13.09553383 27.28405792 13.09553383 25.90008545 13.09336853 C23.01668973 13.08777911 20.13337218 13.07522853 17.25 13.0625 C15.29296987 13.05748363 13.33593853 13.05292096 11.37890625 13.04882812 C6.58590747 13.03781313 1.79296698 13.02055574 -3 13 C-4.09459733 9.3036028 -3.75901226 7.74584345 -2.0625 4.25 C-1.68222656 3.45078125 -1.30195313 2.6515625 -0.91015625 1.828125 C-0.60980469 1.22484375 -0.30945313 0.6215625 0 0 Z " fill="#EFE3FE" transform="translate(269,358)"/>
<path d="M0 0 C7.18865327 4.74722386 12.3126483 10.73279797 17.66601562 17.36914062 C18.9192661 18.90129896 20.21616533 20.39745706 21.515625 21.890625 C22.25296875 22.75171875 22.9903125 23.6128125 23.75 24.5 C24.40484375 25.2528125 25.0596875 26.005625 25.734375 26.78125 C27 29 27 29 26.84375 31.5625 C24.3253868 38.83777146 18.16813973 44.65945723 12 49 C12.61277612 46.03824877 13.25372522 44.61941217 15 42 C15.66 42 16.32 42 17 42 C17.33 41.01 17.66 40.02 18 39 C19.299375 37.88625 19.299375 37.88625 20.625 36.75 C23.41600046 34.14772302 23.41600046 34.14772302 22.875 30.375 C22.3191174 28.23088141 21.70044629 26.10133886 21 24 C20.38125 23.71125 19.7625 23.4225 19.125 23.125 C16.27191263 21.61454198 15.61272631 19.79125708 14 17 C12.44322454 15.14307503 10.8391237 13.34171481 9.20703125 11.55078125 C8 10 8 10 8 8 C7.38125 7.690625 6.7625 7.38125 6.125 7.0625 C4.75 6.375 3.375 5.6875 2 5 C2 4.34 2 3.68 2 3 C1.34 3 0.68 3 0 3 C0 2.01 0 1.02 0 0 Z " fill="#F3E7FE" transform="translate(462,215)"/>
<path d="M0 0 C-0.85722656 0.25394531 -1.71445313 0.50789062 -2.59765625 0.76953125 C-8.55279593 2.56211557 -14.36415225 4.34158125 -20 7 C-20.76699219 7.35835937 -21.53398437 7.71671875 -22.32421875 8.0859375 C-28.24214879 10.93161902 -33.6016223 14.27661301 -39 18 C-41.9375 19.9375 -41.9375 19.9375 -44 21 C-44.66 20.67 -45.32 20.34 -46 20 C-44.62910804 15.88732413 -42.78156848 15.52218643 -38.98046875 13.53125 C-38.05975334 13.04887878 -38.05975334 13.04887878 -37.12043762 12.5567627 C-35.81404845 11.87617553 -34.5050124 11.200649 -33.19360352 10.52978516 C-31.22489982 9.5191983 -29.26963483 8.48567076 -27.31445312 7.44921875 C-7.92774003 -2.66307112 -7.92774003 -2.66307112 0 0 Z " fill="#E2C9FB" transform="translate(246,170)"/>
<path d="M0 0 C-2.79065312 1.86043541 -3.89304091 2.33133649 -7.03515625 2.859375 C-7.83630859 3.00286377 -8.63746094 3.14635254 -9.46289062 3.29418945 C-10.32076172 3.44460693 -11.17863281 3.59502441 -12.0625 3.75 C-20.07729781 5.2275271 -27.6273093 7.30607692 -35.26196289 10.15722656 C-38.98179713 11.51020613 -41.22076946 12.20858378 -45 11 C-35.57642939 7.28071936 -26.2169084 3.77467344 -16.3125 1.5625 C-15.23766357 1.31741699 -15.23766357 1.31741699 -14.14111328 1.06738281 C-9.35018657 0.06241851 -4.89304311 -0.13729077 0 0 Z " fill="#EBD6FC" transform="translate(277,160)"/>
<path d="M0 0 C0.66 0 1.32 0 2 0 C2 0.99 2 1.98 2 3 C2.87398437 3.17208984 2.87398437 3.17208984 3.765625 3.34765625 C6.16523135 4.04824062 7.72860933 4.98192595 9.75 6.4375 C10.36359375 6.86933594 10.9771875 7.30117188 11.609375 7.74609375 C12.06828125 8.15988281 12.5271875 8.57367188 13 9 C13 9.66 13 10.32 13 11 C13.71542969 11.25910156 14.43085938 11.51820313 15.16796875 11.78515625 C18.1563781 13.06708081 20.63665478 14.59413996 23.3125 16.4375 C24.19550781 17.03433594 25.07851562 17.63117188 25.98828125 18.24609375 C26.98408203 19.11427734 26.98408203 19.11427734 28 20 C28 20.99 28 21.98 28 23 C23.83757924 21.59002684 21.02337593 19.58863248 17.6875 16.75 C9.11552324 9.11048143 9.11552324 9.11048143 -1 4 C-0.67 2.68 -0.34 1.36 0 0 Z " fill="#F1E3FE" transform="translate(168,278)"/>
<path d="M0 0 C3.39785555 1.69892777 4.19635324 5.57785712 5.625 8.9375 C5.94984375 9.67935547 6.2746875 10.42121094 6.609375 11.18554688 C9 16.72516741 9 16.72516741 9 19 C9.99 19.33 10.98 19.66 12 20 C14.28581149 24.02603834 15.43355981 28.37536203 15 33 C11.78548731 34.60725635 8.56387464 34.05748185 5 34 C5 33.67 5 33.34 5 33 C8.465 32.505 8.465 32.505 12 32 C12 28.35597126 10.94190253 26.41147762 9.375 23.125 C8.83359375 21.97515625 8.2921875 20.8253125 7.734375 19.640625 C7.15690966 18.42676929 6.57877712 17.21323079 6 16 C4.86840952 13.62796358 3.74458444 11.25278409 2.625 8.875 C2.12226563 7.82054687 1.61953125 6.76609375 1.1015625 5.6796875 C0 3 0 3 0 0 Z " fill="#F5EDFE" transform="translate(268,126)"/>
<path d="M0 0 C0.99 0.33 1.98 0.66 3 1 C2.0821875 1.64066406 1.164375 2.28132812 0.21875 2.94140625 C-5.97832633 7.2996226 -12.0226656 11.60834103 -17.546875 16.8203125 C-19 18 -19 18 -21 18 C-21 18.66 -21 19.32 -21 20 C-25.47058824 24 -25.47058824 24 -28 24 C-26.48238697 20.17147621 -24.20656585 18.26678134 -21 15.75 C-20.113125 15.04359375 -19.22625 14.3371875 -18.3125 13.609375 C-16 12 -16 12 -14 12 C-13.67 11.01 -13.34 10.02 -13 9 C-10.90425273 7.30261791 -8.84400838 5.76600357 -6.625 4.25 C-6.03460938 3.82589844 -5.44421875 3.40179688 -4.8359375 2.96484375 C-3.1015625 1.765625 -3.1015625 1.765625 0 0 Z " fill="#ECD6FB" transform="translate(198,189)"/>
<path d="M0 0 C10.61414699 3.71495145 24.54717974 13.74160571 31 23 C29.35 22.34 27.7 21.68 26 21 C26 20.34 26 19.68 26 19 C25.01 18.67 24.02 18.34 23 18 C23 17.34 23 16.68 23 16 C22.13375 15.773125 21.2675 15.54625 20.375 15.3125 C16.36150535 13.75169653 14.23803751 11.81568479 11 9 C8.78412652 7.72147713 8.78412652 7.72147713 7 7 C7 6.34 7 5.68 7 5 C6.401875 4.731875 5.80375 4.46375 5.1875 4.1875 C3.02775192 3.01506533 1.64209744 1.80630718 0 0 Z " fill="#F4E8FE" transform="translate(424,186)"/>
<path d="M0 0 C4.08337247 1.23450796 7.37217818 2.78791352 11 5 C12.7325 5.680625 12.7325 5.680625 14.5 6.375 C18.19456496 8.09033373 20.30853093 9.98229225 23 13 C17.79099923 11.49062025 13.36833398 9.16624392 8.6875 6.5 C7.95982422 6.09652344 7.23214844 5.69304687 6.48242188 5.27734375 C1.12613129 2.25226258 1.12613129 2.25226258 0 0 Z " fill="#F2E3FE" transform="translate(196,301)"/>
<path d="M0 0 C-1.7472544 1.29537826 -3.49791517 2.58616273 -5.25 3.875 C-6.22453125 4.59429687 -7.1990625 5.31359375 -8.203125 6.0546875 C-10.43902154 7.60982225 -12.52872493 8.88204223 -15 10 C-6.43049327 -3.21524664 -6.43049327 -3.21524664 0 0 Z " fill="#E9D9FE" transform="translate(67,181)"/>
<path d="M0 0 C3.00825564 1.50412782 3.30662971 3.86048301 4.40234375 6.921875 C5.10104707 9.35135321 5.23571669 11.48568864 5 14 C1.78548731 15.60725635 -1.43612536 15.05748185 -5 15 C-5 14.67 -5 14.34 -5 14 C-1.535 13.505 -1.535 13.505 2 13 C2 10.0845524 1.59136731 7.65845519 1 4.8125 C0.814375 3.91144531 0.62875 3.01039063 0.4375 2.08203125 C0.293125 1.39496094 0.14875 0.70789063 0 0 Z " fill="#EEDEFE" transform="translate(278,145)"/>
<path d="M0 0 C5.85272256 0.45020943 10.08220119 3.03839227 15 6 C12.63011757 6.82707306 11.38269269 7.12634 8.96484375 6.328125 C8.29582031 5.97234375 7.62679688 5.6165625 6.9375 5.25 C6.26589844 4.90453125 5.59429687 4.5590625 4.90234375 4.203125 C2.97757077 2.98581478 1.5397108 1.66921919 0 0 Z " fill="#F5EAFE" transform="translate(408,178)"/>
<path d="M0 0 C-2.7596861 1.83979073 -4.29741882 2.48323221 -7.4375 3.1875 C-8.19933594 3.36667969 -8.96117187 3.54585937 -9.74609375 3.73046875 C-12.12958496 4.0154963 -13.73104204 3.72875415 -16 3 C-10.28264895 0.54970669 -6.20970773 -0.33266291 0 0 Z " fill="#E0C5FA" transform="translate(277,160)"/>
<path d="M0 0 C-2.06152389 0.64894237 -4.12426258 1.2940264 -6.1875 1.9375 C-7.91033203 2.47697266 -7.91033203 2.47697266 -9.66796875 3.02734375 C-12.44353006 3.83756036 -15.15687548 4.49134307 -18 5 C-18 4.34 -18 3.68 -18 3 C-15.75376301 2.30030318 -13.50283586 1.61564957 -11.25 0.9375 C-9.99703125 0.55464844 -8.7440625 0.17179688 -7.453125 -0.22265625 C-4.3261992 -0.92656828 -2.90533954 -1.16653785 0 0 Z " fill="#CFB2F9" transform="translate(246,170)"/>
<path d="M0 0 C-3.02453967 2.01635978 -5.63075348 3.03246502 -9.0625 4.1875 C-10.12597656 4.55230469 -11.18945312 4.91710937 -12.28515625 5.29296875 C-15 6 -15 6 -17 5 C-11.14137063 1.43887234 -6.95103087 -0.19860088 0 0 Z " fill="#E3D0FD" transform="translate(86,174)"/>
<path d="M0 0 C-2.79738782 1.5067748 -5.40322432 2.48224115 -8.5 3.1875 C-9.2528125 3.36667969 -10.005625 3.54585937 -10.78125 3.73046875 C-13.14833379 4.01801942 -14.74544015 3.72248395 -17 3 C-14.92085336 2.29994051 -12.83648414 1.61537756 -10.75 0.9375 C-9.58984375 0.55464844 -8.4296875 0.17179688 -7.234375 -0.22265625 C-4.19922915 -0.95211763 -2.84296787 -1.11889082 0 0 Z " fill="#B08FF9" transform="translate(263,165)"/>
<path d="M0 0 C0.33 0 0.66 0 1 0 C0.125 6.75 0.125 6.75 -1 9 C-1.99 9 -2.98 9 -4 9 C-2.94124926 5.59687262 -1.99097846 2.98646769 0 0 Z " fill="#DCC2FB" transform="translate(166,279)"/>
<path d="M0 0 C0 3.64478912 -0.85802506 5.09303401 -3 8 C-5.1875 8.8125 -5.1875 8.8125 -7 9 C-7 7 -7 7 -4.625 4.5 C-3.75875 3.675 -2.8925 2.85 -2 2 C-1.34 1.34 -0.68 0.68 0 0 Z " fill="#D1B2F8" transform="translate(158,292)"/>
<path d="M0 0 C0.66 0.33 1.32 0.66 2 1 C1.01 2.485 1.01 2.485 0 4 C-3.625 4.1875 -3.625 4.1875 -7 4 C-4.61426621 2.10786631 -2.92824652 0.97608217 0 0 Z " fill="#E6D4FE" transform="translate(401,315)"/>
<path d="M0 0 C0 0.66 0 1.32 0 2 C-4.47058824 6 -4.47058824 6 -7 6 C-5.52522876 2.59668175 -4.14385429 0 0 0 Z " fill="#E4CBFA" transform="translate(177,207)"/>
<path d="M0 0 C0.66 0.33 1.32 0.66 2 1 C-1.625 5.875 -1.625 5.875 -5 7 C-3.70700306 4.11562221 -2.34058637 2.12780579 0 0 Z " fill="#34368A" transform="translate(396,199)"/>
</svg>
